<svg width="70" height="70" viewBox="0 0 70 70" fill="none" xmlns="http://www.w3.org/2000/svg">
<g opacity="0.8" filter="url(#filter0_d_3_113)">
<path d="M57.3622 37.0938C57.3622 40.8646 56.6539 44.1354 55.2372 46.9062C53.8206 49.6771 51.9768 51.9479 49.706 53.7188C47.4143 55.4896 44.8414 56.8125 41.9872 57.6875C39.1331 58.5625 36.1852 59 33.1435 59H14.7685V56.7812C15.3727 56.7812 16.1539 56.7292 17.1122 56.625C18.0914 56.5 18.7372 56.3646 19.0497 56.2188C19.6747 55.9479 20.1227 55.5521 20.3935 55.0312C20.6852 54.4896 20.831 53.8438 20.831 53.0938V21.0938C20.831 20.3854 20.706 19.75 20.456 19.1875C20.2268 18.625 19.7581 18.1771 19.0497 17.8438C18.4039 17.5312 17.706 17.3021 16.956 17.1562C16.206 17.0104 15.5602 16.9167 15.0185 16.875V14.6562H34.3935C37.0602 14.6562 39.6852 15.0729 42.2685 15.9062C44.8518 16.7188 47.1018 17.8229 49.0185 19.2188C51.6227 21.0729 53.6643 23.5 55.1435 26.5C56.6227 29.5 57.3622 33.0312 57.3622 37.0938ZM49.706 37.0625C49.706 34.0833 49.3102 31.3958 48.5185 29C47.7268 26.5833 46.5706 24.4792 45.0497 22.6875C43.6122 20.9792 41.8414 19.6354 39.7372 18.6562C37.6539 17.6771 35.331 17.1875 32.7685 17.1875C31.9143 17.1875 30.9456 17.2083 29.8622 17.25C28.7997 17.2708 28.0081 17.2917 27.4872 17.3125V51.4062C27.4872 53.3021 28.0393 54.6146 29.1435 55.3438C30.2477 56.0729 31.9456 56.4375 34.2372 56.4375C36.8831 56.4375 39.1956 55.9688 41.1747 55.0312C43.1539 54.0938 44.7581 52.7917 45.9872 51.125C47.2789 49.375 48.2164 47.3542 48.7997 45.0625C49.4039 42.75 49.706 40.0833 49.706 37.0625Z" fill="#100009"/>
</g>
<g filter="url(#filter1_d_3_113)">
<path d="M31.7244 47.9667C31.7031 47.9667 31.6284 47.9347 31.5004 47.8707C31.3938 47.828 31.3298 47.8067 31.3084 47.8067C31.2871 47.8067 31.2764 47.8173 31.2764 47.8387C31.2764 47.8813 31.2658 47.9027 31.2444 47.9027L31.1804 47.8387L31.1164 47.9347C30.9671 47.8493 30.8924 47.796 30.8924 47.7747C30.8498 47.796 30.8178 47.8067 30.7964 47.8067C30.7751 47.7853 30.7644 47.732 30.7644 47.6467L30.5084 47.5827C30.4871 47.5827 30.4658 47.5933 30.4444 47.6147C30.4231 47.6573 30.4018 47.6787 30.3804 47.6787C30.3164 47.6787 30.2524 47.6467 30.1884 47.5827C30.1244 47.5827 30.0924 47.6253 30.0924 47.7107H29.9324C29.9111 47.7107 29.8364 47.668 29.7084 47.5827C29.5804 47.5187 29.4951 47.4867 29.4524 47.4867C29.4311 47.4867 29.3778 47.4973 29.2924 47.5187C29.2284 47.5613 29.1858 47.5827 29.1644 47.5827H28.8124C28.6418 47.412 28.5244 47.3267 28.4604 47.3267L28.3644 47.4227C28.3218 47.38 28.2684 47.3587 28.2044 47.3587H27.9804C27.9164 47.316 27.7778 47.2413 27.5644 47.1347C27.3511 47.028 27.1804 46.9533 27.0524 46.9107C27.0098 46.9107 26.9884 46.932 26.9884 46.9747C26.6684 46.6333 26.4444 46.4627 26.3164 46.4627H26.2844C26.2844 46.484 26.2738 46.4947 26.2524 46.4947C26.2311 46.4947 26.1991 46.4733 26.1564 46.4307L26.0604 46.4947C26.0391 46.388 25.9858 46.324 25.9004 46.3027C25.8364 46.2813 25.7298 46.2387 25.5804 46.1747C25.5591 46.1747 25.5271 46.1427 25.4844 46.0787C25.4631 46.036 25.4418 46.0147 25.4204 46.0147C25.3991 46.0147 25.3778 46.0253 25.3564 46.0467C25.3564 46.068 25.3458 46.0787 25.3244 46.0787L25.0684 45.8867V45.7907C24.8551 45.7267 24.7378 45.6733 24.7164 45.6307C24.6951 45.652 24.6738 45.6627 24.6524 45.6627C24.6311 45.5347 24.5778 45.4707 24.4924 45.4707C24.4498 45.4707 24.4178 45.4813 24.3964 45.5027C24.3111 45.3533 24.2364 45.2787 24.1724 45.2787V45.1827L23.7884 45.0227C23.6604 44.788 23.5538 44.6707 23.4684 44.6707H23.4044C23.3831 44.692 23.3511 44.7027 23.3084 44.7027L23.0204 44.4147C22.9778 44.3933 22.8924 44.3187 22.7644 44.1907V44.0627C22.7218 44.02 22.6684 43.9987 22.6044 43.9987C22.6471 43.956 22.4871 43.7747 22.1244 43.4547C22.1031 43.3907 22.0711 43.3053 22.0284 43.1987C21.9858 43.0707 21.9431 42.932 21.9004 42.7827C21.8791 42.7827 21.8578 42.7933 21.8364 42.8147C21.7298 42.708 21.4951 42.644 21.1324 42.6227C21.1324 42.5587 21.1218 42.516 21.1004 42.4947C21.0364 42.5373 21.0044 42.5693 21.0044 42.5907C20.9831 42.5693 20.9511 42.548 20.9084 42.5267C20.8658 42.5053 20.8018 42.484 20.7164 42.4627L20.3324 42.3347C20.3111 42.3133 20.2471 42.2813 20.1404 42.2387C20.0551 42.1747 19.9271 42.0893 19.7564 41.9827L19.5004 41.6627L19.4364 41.7267L19.2444 41.5987V41.5027C18.9458 41.2467 18.7538 40.98 18.6684 40.7027C18.7111 40.596 18.7111 40.3293 18.6684 39.9027L19.0844 39.2947C19.2551 39.2947 19.3404 39.3373 19.3404 39.4227C19.3404 39.5293 19.2764 39.6253 19.1484 39.7107C19.0418 39.796 18.9778 39.8707 18.9564 39.9347C19.0204 39.9987 19.0844 40.0307 19.1484 40.0307C19.1271 40.0733 19.1164 40.1267 19.1164 40.1907C19.1164 40.3187 19.1804 40.4467 19.3084 40.5747C19.3298 40.596 19.3724 40.6067 19.4364 40.6067C19.4364 40.6067 19.4471 40.6067 19.4684 40.6067C19.5111 40.6067 19.5538 40.596 19.5964 40.5747H19.8524V40.7987C19.9804 41.012 20.0764 41.1187 20.1404 41.1187C20.1618 41.1187 20.1724 41.108 20.1724 41.0867C20.1511 41.0653 20.1511 41.0547 20.1724 41.0547C20.2578 41.0547 20.3431 41.076 20.4284 41.1187C20.5351 41.3107 20.6418 41.4067 20.7484 41.4067C20.6844 41.4067 20.7378 41.3853 20.9084 41.3427L21.0684 41.5347C21.1964 41.4707 21.2604 41.4067 21.2604 41.3427C21.2604 41.3213 21.2391 41.268 21.1964 41.1827C21.1751 41.0973 21.1538 41.044 21.1324 41.0227V40.8947C21.1324 40.7667 21.0791 40.5747 20.9724 40.3187V39.6787L21.0684 39.4547C21.0471 39.4333 21.0364 39.4013 21.0364 39.3587L21.1324 38.9427C21.3031 38.772 21.3351 38.612 21.2284 38.4627C21.2498 38.4413 21.3564 38.3667 21.5484 38.2387C21.5698 38.2387 21.6124 38.2707 21.6764 38.3347L21.4844 38.9107C21.4631 38.9107 21.4311 38.932 21.3884 38.9747C21.4311 39.1027 21.4418 39.2307 21.4204 39.3587L21.3564 39.7427L21.4204 40.4467C21.4204 40.468 21.4418 40.4787 21.4844 40.4787C21.4631 40.5213 21.4524 40.564 21.4524 40.6067C21.4524 40.628 21.4524 40.6387 21.4524 40.6387L21.6124 41.4067L21.6764 41.4707C21.7191 41.6413 21.8044 41.812 21.9324 41.9827C21.9751 41.9613 22.0071 41.9507 22.0284 41.9507C22.0498 41.9293 22.0604 41.9187 22.0604 41.9187L22.2204 41.9507C22.2204 41.972 22.2311 41.9933 22.2524 42.0147H22.3804L22.4444 42.0787C22.4871 42.0573 22.5298 42.004 22.5724 41.9187C22.7858 41.9827 22.9244 42.1 22.9884 42.2707C23.2231 42.2707 23.3724 42.26 23.4364 42.2387C23.5004 42.2813 23.5431 42.356 23.5644 42.4627C23.6498 42.42 23.6924 42.3987 23.6924 42.3987C23.7351 42.3987 23.7778 42.4093 23.8204 42.4307C23.8844 42.452 23.9271 42.4627 23.9484 42.4627C23.9271 42.4627 23.9591 42.4307 24.0444 42.3667H24.2684C24.3111 42.4733 24.3751 42.5267 24.4604 42.5267C24.5031 42.5267 24.5564 42.516 24.6204 42.4947C24.6844 42.452 24.7271 42.4307 24.7484 42.4307C24.7911 42.4307 24.8444 42.4627 24.9084 42.5267C24.9724 42.5907 25.0151 42.6227 25.0364 42.6227L25.1644 42.5907C25.1644 42.6333 25.1858 42.676 25.2284 42.7187C25.2284 42.7187 25.3458 42.6973 25.5804 42.6547C25.6018 42.6333 25.6338 42.612 25.6764 42.5907C25.7191 42.548 25.7618 42.5267 25.8044 42.5267C26.0818 42.676 26.2738 42.7507 26.3804 42.7507C26.4231 42.7507 26.4658 42.7293 26.5084 42.6867V42.7827C26.6578 42.6973 26.7324 42.6547 26.7324 42.6547L27.1484 42.7827C27.2338 42.7827 27.3511 42.708 27.5004 42.5587C27.5644 42.6227 27.6284 42.6547 27.6924 42.6547C27.7138 42.6547 27.7244 42.644 27.7244 42.6227H27.7564C27.7778 42.6227 27.7991 42.644 27.8204 42.6867C27.8631 42.708 27.8951 42.7187 27.9164 42.7187C27.9378 42.7187 27.9698 42.7187 28.0124 42.7187C28.0551 42.7187 28.1191 42.708 28.2044 42.6867H28.4604C28.5884 42.6867 28.7058 42.6333 28.8124 42.5267C28.8764 42.676 28.9404 42.7507 29.0044 42.7507H29.7724C29.7511 42.772 29.7831 42.7827 29.8684 42.7827C29.8898 42.7827 29.9218 42.772 29.9644 42.7507C30.0071 42.7293 30.0391 42.7187 30.0604 42.7187C30.1031 42.7187 30.1244 42.7293 30.1244 42.7507C30.1458 42.772 30.1671 42.7827 30.1884 42.7827C30.2098 42.7827 30.2738 42.772 30.3804 42.7507C30.4871 42.708 30.5724 42.6867 30.6364 42.6867C30.6578 42.6867 30.6684 42.6973 30.6684 42.7187C30.6898 42.74 30.7111 42.7507 30.7324 42.7507C30.7538 42.7507 30.7858 42.74 30.8284 42.7187C30.8924 42.676 30.9351 42.6547 30.9564 42.6547C30.9778 42.6547 31.0524 42.676 31.1804 42.7187L31.2444 42.6547C31.2658 42.676 31.3511 42.6867 31.5004 42.6867C31.5218 42.6867 31.5324 42.676 31.5324 42.6547C31.5538 42.6333 31.5858 42.6227 31.6284 42.6227C31.6498 42.6227 31.6818 42.6333 31.7244 42.6547C31.7884 42.676 31.8418 42.6867 31.8844 42.6867L32.1724 42.6227C32.2791 42.6227 32.3431 42.612 32.3644 42.5907L32.4284 42.6547C32.4711 42.5907 32.5244 42.5587 32.5884 42.5587C32.6098 42.5587 32.6204 42.5693 32.6204 42.5907C32.6204 42.612 32.6418 42.6227 32.6844 42.6227C32.7058 42.6227 32.7058 42.612 32.6844 42.5907C32.6844 42.5693 32.7271 42.548 32.8124 42.5267H32.9084C32.9298 42.5267 32.9724 42.5267 33.0364 42.5267C33.1004 42.5053 33.1858 42.4947 33.2924 42.4947H33.6444C33.6658 42.4947 33.6764 42.484 33.6764 42.4627C33.6978 42.42 33.7191 42.3987 33.7404 42.3987H33.8684C33.9111 42.42 33.9538 42.4307 33.9964 42.4307L34.1244 42.3347C34.2951 42.3133 34.4124 42.3027 34.4764 42.3027C34.5618 42.2813 34.5938 42.2707 34.5724 42.2707C34.8711 42.1853 35.0844 42.1213 35.2124 42.0787C35.3618 42.036 35.4258 42.0147 35.4044 42.0147C35.4044 42.036 35.4471 42.0573 35.5324 42.0787C35.5538 42.0573 35.5644 42.004 35.5644 41.9187C35.5644 41.8333 35.6498 41.7907 35.8204 41.7907C35.8631 41.7907 35.9271 41.812 36.0124 41.8547C36.0124 41.876 36.0338 41.9507 36.0764 42.0787C35.9911 42.228 35.8418 42.3027 35.6284 42.3027C35.6071 42.3027 35.5858 42.292 35.5644 42.2707H35.5324C35.4898 42.2707 35.3938 42.3133 35.2444 42.3987C35.1164 42.484 35.0418 42.5267 35.0204 42.5267C34.9564 42.5267 34.9031 42.5587 34.8604 42.6227L34.7644 42.5587C34.5084 42.5587 34.1884 42.612 33.8044 42.7187C33.6124 42.7827 33.5484 42.8147 33.6124 42.8147C33.5484 42.8147 33.4844 42.804 33.4204 42.7827H33.2604C33.2391 42.7827 33.2178 42.7933 33.1964 42.8147C33.1964 42.836 33.1751 42.8467 33.1324 42.8467C33.1111 42.8467 33.1004 42.836 33.1004 42.8147H33.0684C33.0044 42.8147 32.9724 42.8467 32.9724 42.9107C32.9298 42.868 32.8871 42.8467 32.8444 42.8467L32.4604 42.9427C32.4178 42.9427 32.3964 42.932 32.3964 42.9107L32.3644 42.8787C32.3431 42.8787 32.3004 42.9 32.2364 42.9427C32.1938 42.964 32.1618 42.9747 32.1404 42.9747H32.0764C32.0764 42.9533 32.0658 42.9427 32.0444 42.9427C31.9804 42.9427 31.9058 42.9533 31.8204 42.9747C31.7351 42.996 31.6178 43.06 31.4684 43.1667C31.4044 43.1027 31.3618 43.0707 31.3404 43.0707C31.2764 43.0707 31.2018 43.092 31.1164 43.1347C31.0524 43.1773 31.0098 43.1987 30.9884 43.1987H30.8604C30.8178 43.1773 30.7751 43.1667 30.7324 43.1667C30.7111 43.1667 30.6791 43.1773 30.6364 43.1987C30.5938 43.22 30.5618 43.2307 30.5404 43.2307C30.5191 43.2307 30.4978 43.22 30.4764 43.1987C30.4551 43.1773 30.4231 43.1667 30.3804 43.1667C30.3591 43.1667 30.3378 43.1773 30.3164 43.1987C30.2951 43.22 30.2738 43.2307 30.2524 43.2307C30.2311 43.2307 30.2098 43.22 30.1884 43.1987C30.1671 43.1773 30.1351 43.1667 30.0924 43.1667C30.0284 43.1667 29.9644 43.188 29.9004 43.2307C29.8578 43.252 29.8364 43.2627 29.8364 43.2627H29.8044C29.7191 43.2627 29.6551 43.2093 29.6124 43.1027C29.4418 43.1453 29.3244 43.188 29.2604 43.2307C29.2818 43.252 29.2818 43.2627 29.2604 43.2627C29.2178 43.2627 29.2178 43.252 29.2604 43.2307C29.2391 43.2093 29.2178 43.188 29.1964 43.1667C29.1751 43.2307 29.1324 43.2627 29.0684 43.2627C29.0471 43.2627 29.0258 43.2627 29.0044 43.2627C28.9831 43.2413 28.9511 43.22 28.9084 43.1987C28.8871 43.22 28.8764 43.2947 28.8764 43.4227C28.7698 43.316 28.6738 43.2627 28.5884 43.2627C28.6311 43.2627 28.5991 43.284 28.4924 43.3267C28.4284 43.2413 28.3751 43.1987 28.3324 43.1987H28.1404L28.0444 43.2627L27.7244 43.1987C27.6604 43.1987 27.6284 43.22 27.6284 43.2627L27.5324 43.1987C27.4898 43.2413 27.4471 43.2627 27.4044 43.2627C27.4044 43.2627 27.3298 43.22 27.1804 43.1347C27.1164 43.1987 27.0844 43.2627 27.0844 43.3267H26.9884L26.9244 43.2627C26.9031 43.284 26.8924 43.316 26.8924 43.3587L26.8284 43.2627C26.8071 43.2627 26.7964 43.2733 26.7964 43.2947C26.7964 43.252 26.7538 43.2307 26.6684 43.2307C26.6258 43.2307 26.5938 43.2413 26.5724 43.2627C26.5724 43.2413 26.5298 43.1987 26.4444 43.1347L26.3484 43.1987C26.3058 43.1987 26.2844 43.22 26.2844 43.2627C26.1138 43.156 26.0071 43.1027 25.9644 43.1027C25.9858 43.1027 25.9431 43.124 25.8364 43.1667C25.7724 43.1027 25.6978 43.0707 25.6124 43.0707C25.5911 43.0707 25.5378 43.1027 25.4524 43.1667C25.3884 43.2093 25.3351 43.2307 25.2924 43.2307C25.1858 43.2307 25.0898 43.2093 25.0044 43.1667C24.9404 43.124 24.8978 43.1027 24.8764 43.1027C24.9191 43.1027 24.8658 43.124 24.7164 43.1667C24.7591 43.124 24.7591 43.092 24.7164 43.0707C24.6951 43.0707 24.6844 43.092 24.6844 43.1347H24.5564L24.4604 43.0067L24.1724 43.1027L23.6604 42.9427C23.0204 42.9427 22.6791 42.9533 22.6364 42.9747C22.7004 43.06 22.7964 43.156 22.9244 43.2627V43.3587C23.0098 43.4013 23.0951 43.4653 23.1804 43.5507C23.2658 43.636 23.3618 43.732 23.4684 43.8387C23.5324 43.9667 23.6818 44.084 23.9164 44.1907C23.9591 44.212 24.0231 44.2227 24.1084 44.2227C24.1511 44.2227 24.1831 44.212 24.2044 44.1907H24.3644V44.2547C24.3644 44.3187 24.4071 44.3827 24.4924 44.4467C24.5991 44.532 24.6524 44.596 24.6524 44.6387C24.6524 44.6813 24.6418 44.7133 24.6204 44.7347C24.9191 44.8627 25.0578 44.9267 25.0364 44.9267C25.0578 44.9267 25.0898 44.9053 25.1324 44.8627C25.1964 44.8413 25.2391 44.8307 25.2604 44.8307C25.3244 44.8307 25.3884 44.916 25.4524 45.0867L25.5484 44.9907H25.6444C25.6444 45.0333 25.6338 45.0653 25.6124 45.0867C25.6764 45.108 25.7298 45.1187 25.7724 45.1187C25.8151 45.1187 25.9644 45.172 26.2204 45.2787C26.2418 45.2787 26.2738 45.2573 26.3164 45.2147C26.3591 45.3 26.4018 45.3747 26.4444 45.4387C26.4871 45.524 26.5511 45.5667 26.6364 45.5667H26.7004C26.7004 45.5453 26.7218 45.5347 26.7644 45.5347C26.7858 45.5347 26.7858 45.5453 26.7644 45.5667C26.7644 45.588 26.7751 45.5987 26.7964 45.5987C26.8178 45.5987 26.8391 45.5773 26.8604 45.5347C26.8818 45.5133 26.9031 45.5027 26.9244 45.5027C26.9671 45.5027 27.0204 45.524 27.0844 45.5667C27.1484 45.6307 27.1911 45.684 27.2124 45.7267C27.2551 45.6627 27.2871 45.6307 27.3084 45.6307C27.3298 45.6307 27.3831 45.652 27.4684 45.6947C27.5751 45.7373 27.6498 45.7587 27.6924 45.7587C27.7778 45.7587 27.8631 45.7267 27.9484 45.6627C28.0338 45.7907 28.1511 45.8973 28.3004 45.9827L28.3644 46.0467C28.3431 46.068 28.3324 46.1427 28.3324 46.2707L28.4924 46.2067L28.5244 46.3347C28.5244 46.4413 28.4818 46.4947 28.3964 46.4947H28.3324C28.3324 46.5373 28.3538 46.5587 28.3964 46.5587C28.4178 46.5587 28.4498 46.5587 28.4924 46.5587C28.5351 46.5587 28.5778 46.548 28.6204 46.5267H28.8444C28.8871 46.5267 28.9084 46.4733 28.9084 46.3667H29.1964C29.2178 46.3667 29.2391 46.3453 29.2604 46.3027C29.3031 46.2813 29.3351 46.2707 29.3564 46.2707L29.6444 46.3667L29.7724 46.1107C29.8578 46.1533 29.9431 46.1747 30.0284 46.1747C30.1351 46.1747 30.3058 46.2067 30.5404 46.2707L30.6044 46.3667V46.2707C30.6684 46.2493 30.8178 46.2387 31.0524 46.2387C31.0098 46.2387 31.1164 46.3027 31.3724 46.4307C31.5004 46.3667 31.5538 46.324 31.5324 46.3027H31.5004C31.5218 46.3027 31.5324 46.3027 31.5324 46.3027C31.5538 46.324 31.5751 46.3347 31.5964 46.3347C31.6178 46.356 31.6391 46.3667 31.6604 46.3667C31.7458 46.2813 31.7778 46.2387 31.7564 46.2387C31.7778 46.2387 31.7991 46.2387 31.8204 46.2387C31.8418 46.26 31.8738 46.2813 31.9164 46.3027C31.9164 46.324 31.9271 46.356 31.9484 46.3987C31.9911 46.356 32.0444 46.3347 32.1084 46.3347C32.1298 46.3347 32.1298 46.292 32.1084 46.2067C32.1511 46.2067 32.2044 46.1853 32.2684 46.1427C32.3324 46.1213 32.3751 46.1107 32.3964 46.1107C32.4178 46.1107 32.5138 46.1533 32.6844 46.2387C32.8551 46.324 32.9511 46.3667 32.9724 46.3667H33.0044C33.0898 46.2813 33.1324 46.2173 33.1324 46.1747C33.1751 46.1747 33.2284 46.2067 33.2924 46.2707C33.3991 46.164 33.4844 46.1107 33.5484 46.1107C33.5698 46.1107 33.5911 46.1213 33.6124 46.1427C33.6338 46.164 33.6551 46.1747 33.6764 46.1747C33.7404 46.1747 33.8471 46.1 33.9964 45.9507H34.0924C34.1138 45.972 34.1351 45.9827 34.1564 45.9827H34.2204C34.2418 46.068 34.2418 46.1853 34.2204 46.3347L34.3164 46.4627C34.3591 46.42 34.3911 46.42 34.4124 46.4627L34.4764 46.3667V46.2067C34.4764 46.2067 34.4871 46.1853 34.5084 46.1427C34.5298 46.1213 34.5618 46.1107 34.6044 46.1107C34.6258 46.1107 34.6471 46.1213 34.6684 46.1427C34.6898 46.1 34.7218 46.0467 34.7644 45.9827C34.8071 45.9187 34.8498 45.844 34.8924 45.7587C34.8924 45.78 34.9138 45.7907 34.9564 45.7907C35.0631 45.812 35.1378 45.844 35.1804 45.8867C35.2231 45.8227 35.3084 45.7907 35.4364 45.7907L35.5324 45.8867L35.7564 45.7587V45.6307L35.9484 45.4707C36.3324 45.3 36.5778 45.2147 36.6844 45.2147L36.7484 45.2787C36.7698 45.2787 36.7804 45.2467 36.7804 45.1827C36.8018 45.204 36.8658 45.1827 36.9724 45.1187C37.0578 45.1613 37.0898 45.1933 37.0684 45.2147C37.0471 45.236 37.0578 45.2467 37.1004 45.2467H37.3244C37.4311 45.2467 37.4951 45.2467 37.5164 45.2467C37.5591 45.268 37.5911 45.2787 37.6124 45.2787C37.6551 45.2787 37.6978 45.2467 37.7404 45.1827C37.7831 45.14 37.9431 45.0227 38.2204 44.8307C38.4978 44.66 38.6791 44.5747 38.7644 44.5747C38.7431 44.5533 38.7431 44.5107 38.7644 44.4467C38.7644 44.4253 38.7644 44.4147 38.7644 44.4147V44.4467C38.7644 44.4467 38.8178 44.4467 38.9244 44.4467C38.9884 44.4467 39.0311 44.4147 39.0524 44.3507L39.1164 44.4147L39.3084 44.3187C39.3511 44.276 39.3298 44.2013 39.2444 44.0947V43.8707L39.3724 43.8387C39.4151 43.8387 39.4578 43.8493 39.5004 43.8707C39.5644 43.9133 39.6071 43.9347 39.6284 43.9347C39.7138 43.892 39.8524 43.828 40.0444 43.7427C40.2364 43.6573 40.3431 43.572 40.3644 43.4867V43.4547C40.3644 43.3907 40.3858 43.3053 40.4284 43.1987C40.4924 43.092 40.5458 43.0387 40.5884 43.0387C40.6311 43.0387 40.6631 43.0493 40.6844 43.0707H40.7484C40.7911 43.0707 40.8871 43.0067 41.0364 42.8787C41.0578 42.8573 41.0684 42.8253 41.0684 42.7827C41.0684 42.74 41.0791 42.6867 41.1004 42.6227C41.1004 42.6227 41.1751 42.676 41.3244 42.7827C41.3458 42.7827 41.3671 42.772 41.3884 42.7507C41.4311 42.708 41.4738 42.6867 41.5164 42.6867V42.2387C41.5591 42.2173 41.6018 42.196 41.6444 42.1747C41.7084 42.1533 41.7831 42.1213 41.8684 42.0787C41.9324 42.036 41.9964 41.94 42.0604 41.7907H42.2524C42.2524 41.748 42.2738 41.6733 42.3164 41.5667C42.2951 41.5667 42.2951 41.556 42.3164 41.5347V41.5667C42.3164 41.5667 42.3378 41.5667 42.3804 41.5667C42.3164 41.5667 42.3484 41.5453 42.4764 41.5027C42.4338 41.3533 42.3804 41.268 42.3164 41.2467C42.3378 41.2253 42.3484 41.1933 42.3484 41.1507H42.5404C42.5404 41.0867 42.5191 41.0333 42.4764 40.9907C42.5191 40.9267 42.5938 40.8627 42.7004 40.7987C42.8284 40.7347 42.8924 40.66 42.8924 40.5747C42.8924 40.532 42.8924 40.4893 42.8924 40.4467C42.8924 40.3827 42.8711 40.3187 42.8284 40.2547C42.8284 40.212 42.8391 40.1693 42.8604 40.1267H42.8924C43.0418 40.1267 43.1164 39.9453 43.1164 39.5827C43.1164 39.3267 43.0738 39.124 42.9884 38.9747C42.9884 38.9533 42.9991 38.932 43.0204 38.9107C42.9991 38.868 42.9458 38.772 42.8604 38.6227C42.7964 38.4733 42.6791 38.292 42.5084 38.0787L42.2204 37.6947C41.9218 37.396 41.7511 37.2467 41.7084 37.2467C41.6658 37.2467 41.6551 37.2573 41.6764 37.2787C41.6764 37.3 41.6764 37.3107 41.6764 37.3107C41.6764 37.3107 41.6764 37.3 41.6764 37.2787C41.6124 37.172 41.5378 37.1187 41.4524 37.1187C41.4311 37.1187 41.4098 37.1293 41.3884 37.1507C41.3671 37.0013 41.3138 36.9267 41.2284 36.9267H41.1964C41.1964 36.948 41.1858 36.9587 41.1644 36.9587C41.1431 36.9587 41.1004 36.9267 41.0364 36.8627C40.9724 36.7987 40.9298 36.7667 40.9084 36.7667H40.8764C40.8764 36.788 40.8658 36.7987 40.8444 36.7987C40.9084 36.7987 40.8871 36.7667 40.7804 36.7027C40.7164 36.7027 40.5244 36.6387 40.2044 36.5107C39.9058 36.3827 39.6818 36.3187 39.5324 36.3187C39.5324 36.2547 39.5111 36.2227 39.4684 36.2227C39.4471 36.2227 39.4364 36.2333 39.4364 36.2547C39.4364 36.276 39.4258 36.2867 39.4044 36.2867C39.3831 36.2867 39.2444 36.2333 38.9884 36.1267H38.8284C38.8071 36.1267 38.7858 36.1267 38.7644 36.1267C38.7431 36.1053 38.6791 36.084 38.5724 36.0627C38.5511 36.0627 38.5298 36.0733 38.5084 36.0947L38.4444 35.9987C38.4444 35.9987 38.4231 35.9773 38.3804 35.9347C38.3378 35.9773 38.2951 35.9987 38.2524 35.9987C38.2098 35.9987 38.1138 35.9667 37.9644 35.9027C37.8364 35.8387 37.7618 35.8067 37.7404 35.8067C37.6978 35.8067 37.6444 35.8173 37.5804 35.8387H37.3884C37.3671 35.8387 37.3458 35.828 37.3244 35.8067C37.3031 35.7853 37.2818 35.7747 37.2604 35.7747C37.2178 35.7747 37.1431 35.7747 37.0364 35.7747C36.9511 35.7747 36.8444 35.764 36.7164 35.7427L36.6204 35.6467H36.5564L36.4924 35.5827L36.3644 35.6787C36.2578 35.572 36.1404 35.5187 36.0124 35.5187H35.8844C35.8418 35.54 35.7991 35.5507 35.7564 35.5507C35.7351 35.5507 35.7244 35.54 35.7244 35.5187C35.7458 35.4973 35.7458 35.4867 35.7244 35.4867C35.7031 35.4867 35.6818 35.476 35.6604 35.4547C35.6604 35.4333 35.6498 35.4227 35.6284 35.4227L35.4044 35.4867C35.3831 35.4867 35.3298 35.4653 35.2444 35.4227C35.1591 35.3587 35.0951 35.3267 35.0524 35.3267H34.9884C34.9671 35.3267 34.8924 35.316 34.7644 35.2947C34.6578 35.2733 34.4978 35.2413 34.2844 35.1987L33.5804 35.0387L33.4844 35.0707C33.4204 35.0707 33.2284 34.996 32.9084 34.8467C32.6098 34.6973 32.4391 34.6227 32.3964 34.6227H32.3324C32.3111 34.644 32.2898 34.6547 32.2684 34.6547C32.1831 34.6547 32.0551 34.6013 31.8844 34.4947V34.5587C31.7778 34.516 31.4044 34.3987 30.7644 34.2067C30.4231 34.036 29.9431 33.78 29.3244 33.4387C29.2178 33.3107 29.1431 33.172 29.1004 33.0227V32.7667C29.0151 32.5747 28.9191 32.4467 28.8124 32.3827C28.8551 32.2547 28.8338 32.1693 28.7484 32.1267C28.7911 32.02 28.7804 31.9133 28.7164 31.8067L28.8124 31.1347C28.8551 31.092 28.8871 31.0173 28.9084 30.9107C28.9298 30.7827 29.0044 30.5373 29.1324 30.1747C29.1538 30.132 29.1644 30.0893 29.1644 30.0467C29.1644 30.004 29.1751 29.9507 29.1964 29.8867C29.1964 29.908 29.2071 29.9293 29.2284 29.9507C29.2498 29.9293 29.2818 29.876 29.3244 29.7907C29.3671 29.684 29.4524 29.5987 29.5804 29.5347C29.5804 29.492 29.6018 29.428 29.6444 29.3427C29.7084 29.2573 29.8258 29.0973 29.9964 28.8627C30.1458 28.7987 30.3164 28.628 30.5084 28.3507C30.7004 28.0733 30.8711 27.8813 31.0204 27.7747L31.3084 27.6787L31.4364 27.5187L32.1084 27.1347C32.1511 27.092 32.2471 27.06 32.3964 27.0387L32.4604 26.9747C32.5458 26.9747 32.5884 26.9427 32.5884 26.8787L32.6524 26.9427C32.6524 26.9213 32.7698 26.8573 33.0044 26.7507L33.2604 26.6227C33.3244 26.5587 33.4098 26.516 33.5164 26.4947C33.5591 26.4733 33.6018 26.4627 33.6444 26.4627C33.6871 26.4627 33.7404 26.452 33.8044 26.4307C33.8258 26.4307 33.8471 26.4093 33.8684 26.3667C33.9111 26.324 33.9431 26.3027 33.9644 26.3027C33.9858 26.3027 33.9964 26.3133 33.9964 26.3347H34.0284C34.0071 26.3347 34.0711 26.292 34.2204 26.2067C34.5191 25.9933 34.8924 25.876 35.3404 25.8547C35.3618 25.8547 35.3938 25.8333 35.4364 25.7907C35.4791 25.748 35.5111 25.7267 35.5324 25.7267H35.5964C35.6178 25.748 35.6391 25.7587 35.6604 25.7587C35.7031 25.7587 35.7458 25.748 35.7884 25.7267C35.8311 25.684 35.8738 25.6627 35.9164 25.6627C35.8311 25.6627 35.9271 25.62 36.2044 25.5347C36.5031 25.428 36.8658 25.3747 37.2924 25.3747C37.3564 25.3747 37.4204 25.364 37.4844 25.3427H37.7084C37.7298 25.3427 37.7404 25.332 37.7404 25.3107H37.7724C37.8791 25.3107 37.9858 25.3 38.0924 25.2787C38.1991 25.2573 38.2631 25.204 38.2844 25.1187L38.3484 25.1827C38.4124 25.076 38.4658 25.076 38.5084 25.1827V25.1187H38.6684C38.6898 25.1187 38.7004 25.1293 38.7004 25.1507C38.7218 25.172 38.7431 25.1827 38.7644 25.1827C38.8284 25.1827 38.8604 25.1613 38.8604 25.1187L38.9884 25.2147C39.1591 25.0227 39.2871 24.9267 39.3724 24.9267L39.5964 24.9907C39.6391 24.9907 39.6604 24.98 39.6604 24.9587C39.6604 24.9373 39.6711 24.9267 39.6924 24.9267C39.7138 24.9267 39.7778 24.948 39.8844 24.9907C40.0124 25.0333 40.0978 25.0547 40.1404 25.0547C40.1618 25.0547 40.2044 25.0333 40.2684 24.9907C40.3324 24.9267 40.3751 24.8947 40.3964 24.8947C40.5458 24.916 40.6524 24.948 40.7164 24.9907C40.8018 25.012 40.9298 25.0547 41.1004 25.1187C41.2071 24.9907 41.2711 24.9267 41.2924 24.9267C41.3351 24.9267 41.4418 24.9693 41.6124 25.0547L41.7404 24.9587C41.7191 24.98 41.7084 25.012 41.7084 25.0547C41.7298 25.076 41.7511 25.0867 41.7724 25.0867H41.9644C42.0071 25.0867 42.0071 25.0547 41.9644 24.9907C42.0498 25.076 42.1244 25.1187 42.1884 25.1187C42.2098 25.1187 42.2204 25.108 42.2204 25.0867H42.2524C42.2311 25.0867 42.2631 25.1187 42.3484 25.1827C42.3271 25.1827 42.3378 25.1933 42.3804 25.2147C42.4231 25.2147 42.4871 25.2253 42.5724 25.2467C42.6151 25.2893 42.6471 25.3747 42.6684 25.5027C42.6898 25.4813 42.7004 25.4493 42.7004 25.4067C42.7004 25.4493 42.7111 25.4813 42.7324 25.5027L43.4044 25.7907C43.4044 25.9187 43.5004 26.0467 43.6924 26.1747C43.6711 26.26 43.7244 26.42 43.8524 26.6547C44.0018 26.8893 44.0551 27.0493 44.0124 27.1347C44.0978 27.284 44.1404 27.412 44.1404 27.5187C44.1404 27.732 44.1084 27.9347 44.0444 28.1267C43.9804 28.212 43.9058 28.3507 43.8204 28.5427C43.7564 28.7347 43.5858 28.948 43.3084 29.1827C42.9884 29.46 42.7964 29.6733 42.7324 29.8227L41.8684 30.4947C41.8258 30.5373 41.7938 30.58 41.7724 30.6227C41.7511 30.644 41.7404 30.6547 41.7404 30.6547C41.6978 30.6547 41.6764 30.644 41.6764 30.6227C41.6978 30.6013 41.6871 30.5907 41.6444 30.5907C41.6658 30.5907 41.5378 30.6653 41.2604 30.8147L41.0364 30.8787C40.9724 30.9213 40.8871 30.9853 40.7804 31.0707C40.6951 31.1347 40.5778 31.22 40.4284 31.3267C40.3431 31.348 40.2471 31.3907 40.1404 31.4547C40.0338 31.4973 39.9058 31.5613 39.7564 31.6467C39.7564 31.5827 39.7244 31.5507 39.6604 31.5507L40.2684 31.0387C40.3111 31.0387 40.3644 31.028 40.4284 31.0067L41.0044 30.4947L41.2604 30.3667C41.3458 30.3453 41.3884 30.2813 41.3884 30.1747H41.4524C41.6871 30.1747 41.8684 29.972 41.9964 29.5667C42.0604 29.5667 42.1031 29.5773 42.1244 29.5987C42.1458 29.5347 42.1884 29.4707 42.2524 29.4067C42.3164 29.3427 42.4018 29.2573 42.5084 29.1507C42.6364 28.98 42.7751 28.7773 42.9244 28.5427C43.0738 28.2867 43.2231 28.02 43.3724 27.7427C43.3724 27.7427 43.3511 27.7 43.3084 27.6147C43.3298 27.572 43.3724 27.5187 43.4364 27.4547C43.5004 27.3693 43.5324 27.316 43.5324 27.2947C43.5324 27.2947 43.5111 27.252 43.4684 27.1667V26.7187C43.4684 26.5693 43.3938 26.42 43.2444 26.2707C43.2018 26.292 43.1698 26.3027 43.1484 26.3027L43.1804 26.1747C43.1804 26.1107 43.0418 26.004 42.7644 25.8547C42.4231 25.6413 42.2098 25.5347 42.1244 25.5347H42.0284C42.0071 25.556 41.9751 25.5667 41.9324 25.5667C41.8898 25.5667 41.8151 25.5453 41.7084 25.5027C41.6231 25.46 41.5698 25.4387 41.5484 25.4387C41.5271 25.4387 41.5164 25.4493 41.5164 25.4707C41.5164 25.492 41.5058 25.5027 41.4844 25.5027L40.7804 25.3427C40.7591 25.3427 40.7484 25.3533 40.7484 25.3747C40.7484 25.396 40.7378 25.4067 40.7164 25.4067C40.6951 25.4067 40.6631 25.396 40.6204 25.3747C40.5778 25.3533 40.5351 25.3427 40.4924 25.3427C40.4711 25.3427 40.4498 25.3533 40.4284 25.3747C40.4284 25.396 40.4178 25.4067 40.3964 25.4067C40.3751 25.4067 40.3644 25.396 40.3644 25.3747H40.3004C40.2791 25.3747 40.2684 25.3853 40.2684 25.4067C40.2684 25.428 40.2578 25.4387 40.2364 25.4387C40.2151 25.4387 40.1938 25.428 40.1724 25.4067C40.1724 25.3853 40.1618 25.3747 40.1404 25.3747C40.1191 25.3747 40.1084 25.3853 40.1084 25.4067H40.1404L39.6284 25.5027C39.5858 25.5027 39.5324 25.5027 39.4684 25.5027C39.4044 25.5027 39.3298 25.5133 39.2444 25.5347L39.1484 25.4707C38.8071 25.5987 38.5511 25.6627 38.3804 25.6627C38.3378 25.6627 38.3164 25.652 38.3164 25.6307H38.2844C38.2418 25.6307 38.0924 25.6733 37.8364 25.7587C37.6018 25.844 37.4738 25.8867 37.4524 25.8867C37.4311 25.8867 37.4311 25.876 37.4524 25.8547C37.4524 25.8333 37.4418 25.8227 37.4204 25.8227C37.4418 25.8227 37.4524 25.8227 37.4524 25.8227C37.4524 25.8013 37.4524 25.7907 37.4524 25.7907C37.4524 25.7693 37.3778 25.78 37.2284 25.8227C37.0791 25.8653 36.9298 25.9187 36.7804 25.9827C36.6524 26.0253 36.5778 26.068 36.5564 26.1107H36.5244C36.5244 26.0893 36.5138 26.0787 36.4924 26.0787C36.3644 26.0787 36.2471 26.164 36.1404 26.3347C36.1404 26.3133 36.1511 26.292 36.1724 26.2707L36.0444 26.2067L35.8844 26.4307L35.8204 26.3667C35.9058 26.3667 35.7244 26.452 35.2764 26.6227C35.2551 26.644 35.2444 26.6547 35.2444 26.6547C35.2444 26.6547 35.2444 26.6653 35.2444 26.6867C35.2231 26.6653 35.2231 26.6547 35.2444 26.6547C35.2231 26.6547 35.2124 26.6547 35.2124 26.6547C35.2124 26.676 35.0524 26.7507 34.7324 26.8787L34.3804 27.0067L34.1564 27.1667L32.3324 28.5107C32.1191 28.66 31.9591 28.8307 31.8524 29.0227C31.7671 29.1933 31.6604 29.3853 31.5324 29.5987L31.4364 29.5347C31.4151 29.6413 31.3084 29.748 31.1164 29.8547C31.1378 29.8333 31.1484 29.8867 31.1484 30.0147C31.1484 30.0573 31.0844 30.132 30.9564 30.2387V30.3347C30.9564 30.4627 30.9671 30.5693 30.9884 30.6547C30.9671 30.7187 30.9458 30.804 30.9244 30.9107C30.9244 30.996 30.8818 31.156 30.7964 31.3907C30.7964 31.412 30.7964 31.444 30.7964 31.4867C30.7964 31.5293 30.8071 31.572 30.8284 31.6147C30.8071 31.7 30.7858 31.764 30.7644 31.8067C30.7644 31.828 30.7644 31.828 30.7644 31.8067C30.7644 31.9987 30.7751 32.0733 30.7964 32.0307C31.0311 32.116 31.1271 32.308 31.0844 32.6067C31.1911 32.7133 31.2444 32.7667 31.2444 32.7667C31.2658 32.7667 31.2764 32.756 31.2764 32.7347H31.3084C31.3511 32.7347 31.4044 32.7667 31.4684 32.8307C31.5324 32.8947 31.6178 32.9267 31.7244 32.9267C31.7031 32.948 31.7138 33.0227 31.7564 33.1507C31.8204 33.2787 31.8738 33.3427 31.9164 33.3427C31.9378 33.3427 31.9484 33.332 31.9484 33.3107H31.9804C32.0018 33.3107 32.0978 33.3747 32.2684 33.5027C32.4391 33.6307 32.5351 33.6947 32.5564 33.6947H32.5884C32.5884 33.6733 32.5991 33.6627 32.6204 33.6627C32.6418 33.6627 32.7591 33.748 32.9724 33.9187C33.2071 34.068 33.3458 34.1427 33.3884 34.1427C33.4098 34.1427 33.5484 34.0893 33.8044 33.9827L34.1884 34.3987C34.2098 34.3773 34.2204 34.3453 34.2204 34.3027C34.3911 34.4947 34.5511 34.5907 34.7004 34.5907C34.7431 34.5907 34.7858 34.612 34.8284 34.6547L34.8924 34.5587C34.8924 34.6013 34.9138 34.6227 34.9564 34.6227C34.9778 34.6227 34.9884 34.612 34.9884 34.5907H35.0204C35.2978 34.7613 35.4471 34.8467 35.4684 34.8467C35.4898 34.8467 35.5218 34.836 35.5644 34.8147C35.6071 34.7933 35.6391 34.7827 35.6604 34.7827C35.7031 34.7827 35.7778 34.836 35.8844 34.9427C35.9058 34.9213 35.9164 34.9 35.9164 34.8787C36.0231 34.9853 36.2044 35.0387 36.4604 35.0387C36.6524 35.1667 36.8124 35.2307 36.9404 35.2307C37.0684 35.2307 37.1431 35.2413 37.1644 35.2627L37.3884 35.3587C37.4098 35.3587 37.4631 35.348 37.5484 35.3267C37.6338 35.3053 37.6978 35.2947 37.7404 35.2947C37.9751 35.3373 38.1351 35.38 38.2204 35.4227C38.3058 35.444 38.3164 35.4547 38.2524 35.4547C38.2738 35.4547 38.2951 35.444 38.3164 35.4227L38.3804 35.4867L38.6684 35.6787C38.7111 35.6787 38.7431 35.7107 38.7644 35.7747L38.9244 35.6467C38.9884 35.7107 38.9991 35.7427 38.9564 35.7427L38.8924 35.8067L39.0204 35.9027C39.1271 35.8173 39.2338 35.7747 39.3404 35.7747C39.3191 35.7747 39.3084 35.7747 39.3084 35.7747C39.3298 35.7747 39.3511 35.7747 39.3724 35.7747H39.3404C39.2551 35.7747 39.3191 35.8067 39.5324 35.8707C39.6604 35.9133 39.7351 35.956 39.7564 35.9987H40.1084C40.1511 36.1267 40.2151 36.1907 40.3004 36.1907C40.3431 36.1907 40.3538 36.18 40.3324 36.1587C40.3324 36.1373 40.3431 36.1267 40.3644 36.1267C40.4071 36.1267 40.4924 36.1587 40.6204 36.2227C40.6418 36.2227 40.6738 36.2547 40.7164 36.3187C40.7591 36.3827 40.8018 36.4147 40.8444 36.4147C40.8658 36.4147 40.8764 36.404 40.8764 36.3827H40.9084C40.9511 36.3827 41.0151 36.4573 41.1004 36.6067C41.1218 36.5853 41.1324 36.564 41.1324 36.5427L41.4204 36.7347C41.4418 36.7347 41.4738 36.7347 41.5164 36.7347C41.5591 36.7347 41.6124 36.7453 41.6764 36.7667C41.6978 36.788 41.7298 36.8413 41.7724 36.9267C41.8364 36.9907 41.8898 37.0227 41.9324 37.0227C41.9538 37.0227 41.9644 37.012 41.9644 36.9907H41.9964C42.0178 36.9907 42.0391 37.0227 42.0604 37.0867C42.0818 37.1293 42.1138 37.1507 42.1564 37.1507C42.1991 37.1293 42.2311 37.1187 42.2524 37.1187C42.2524 37.14 42.3378 37.236 42.5084 37.4067C42.4871 37.4067 42.5724 37.5347 42.7644 37.7907C42.8711 37.8973 42.9564 37.972 43.0204 38.0147C43.1058 38.036 43.2231 38.1427 43.3724 38.3347C43.3511 38.356 43.3404 38.42 43.3404 38.5267L43.6284 38.7827C43.6284 38.804 43.6818 38.9533 43.7884 39.2307C43.8951 39.4867 43.9484 39.7427 43.9484 39.9987C43.9484 40.148 43.9271 40.2973 43.8844 40.4467C43.8631 40.596 43.8311 40.756 43.7884 40.9267C43.7458 41.1187 43.7351 41.2253 43.7564 41.2467C43.6924 41.268 43.6178 41.396 43.5324 41.6307C43.4471 41.8867 43.2978 42.1747 43.0844 42.4947C43.0631 42.516 42.9991 42.5907 42.8924 42.7187C42.8071 42.8253 42.6684 42.9853 42.4764 43.1987L42.3804 43.4547C42.3378 43.5187 42.2738 43.5933 42.1884 43.6787C42.1031 43.764 42.0071 43.86 41.9004 43.9667L41.5164 44.1907C41.1538 44.4467 40.9724 44.6067 40.9724 44.6707V44.6387H40.9404C40.9831 44.6387 40.9298 44.6813 40.7804 44.7667C40.7804 44.788 40.7591 44.82 40.7164 44.8627C40.6951 44.9267 40.6311 45.0013 40.5244 45.0867C40.4818 45.0867 40.3964 45.108 40.2684 45.1507C40.2258 45.1933 40.1618 45.2467 40.0764 45.3107C39.9911 45.396 39.8951 45.4813 39.7884 45.5667L39.4684 45.6627C39.4684 45.6627 39.4151 45.716 39.3084 45.8227C39.2231 45.9293 39.1378 45.9827 39.0524 45.9827C39.0738 45.9827 39.0631 45.9613 39.0204 45.9187H38.9884C38.9671 45.9187 38.9564 45.9613 38.9564 46.0467H38.8924C38.9138 46.0467 38.8498 46.0893 38.7004 46.1747C38.6151 46.2387 38.4871 46.3027 38.3164 46.3667C38.1458 46.4307 37.9644 46.5373 37.7724 46.6867C37.6658 46.6867 37.6018 46.6973 37.5804 46.7187L37.5164 46.6547C37.4951 46.74 37.4311 46.7827 37.3244 46.7827C37.3031 46.7827 37.2924 46.772 37.2924 46.7507H37.2604C37.2391 46.7507 37.1858 46.7827 37.1004 46.8467C37.0364 46.932 36.9938 46.9747 36.9724 46.9747L36.6524 46.9107C36.6524 46.9107 36.5991 46.9747 36.4924 47.1027C36.3858 47.2307 36.2578 47.2947 36.1084 47.2947C36.0871 47.2947 36.0764 47.284 36.0764 47.2627L36.0444 47.2307C36.0018 47.2307 35.9698 47.2413 35.9484 47.2627C35.9271 47.3053 35.9058 47.3267 35.8844 47.3267H35.8524C35.8524 47.3053 35.8418 47.2947 35.8204 47.2947C35.7991 47.2947 35.7564 47.316 35.6924 47.3587C35.6284 47.4013 35.5751 47.4227 35.5324 47.4227H35.4684C35.4471 47.4013 35.4258 47.3907 35.4044 47.3907C35.3191 47.3907 35.1271 47.476 34.8284 47.6467L34.7004 47.4547C34.6364 47.604 34.5511 47.6787 34.4444 47.6787C34.4018 47.6787 34.3484 47.6467 34.2844 47.5827H34.2204C34.1778 47.5827 34.1564 47.5933 34.1564 47.6147C34.1778 47.636 34.1778 47.6467 34.1564 47.6467H34.1244C34.1244 47.6253 34.1138 47.6147 34.0924 47.6147C34.0711 47.6147 33.9858 47.6573 33.8364 47.7427C33.6871 47.828 33.5804 47.8707 33.5164 47.8707C33.5164 47.828 33.4738 47.796 33.3884 47.7747C33.3244 47.7533 33.2391 47.7107 33.1324 47.6467L33.0044 47.8067H32.9724L32.9084 47.8707C32.7591 47.8493 32.6098 47.7747 32.4604 47.6467V47.7107H32.2684C32.2044 47.6893 32.1511 47.6787 32.1084 47.6787C32.0871 47.6787 32.0231 47.7213 31.9164 47.8067C31.8311 47.9133 31.7671 47.9667 31.7244 47.9667ZM36.5244 41.8867C36.4604 41.9293 36.4071 41.8973 36.3644 41.7907L36.3964 41.5347H36.5884C36.5884 41.5773 36.5778 41.6307 36.5564 41.6947C36.5564 41.7373 36.5458 41.8013 36.5244 41.8867ZM24.2044 44.5747H24.2684V44.4467H24.2044V44.5747Z" fill="#F794CD"/>
</g>
<circle cx="34.507" cy="35.4929" r="34.007" stroke="#40333A" stroke-opacity="0.2"/>
<defs>
<filter id="filter0_d_3_113" x="10.7685" y="14.6562" width="50.5938" height="52.3438" filterUnits="userSpaceOnUse" color-interpolation-filters="sRGB">
<feFlood flood-opacity="0" result="BackgroundImageFix"/>
<feColorMatrix in="SourceAlpha" type="matrix" values="0 0 0 0 0 0 0 0 0 0 0 0 0 0 0 0 0 0 127 0" result="hardAlpha"/>
<feOffset dy="4"/>
<feGaussianBlur stdDeviation="2"/>
<feComposite in2="hardAlpha" operator="out"/>
<feColorMatrix type="matrix" values="0 0 0 0 0.25098 0 0 0 0 0.2 0 0 0 0 0.227451 0 0 0 0.2 0"/>
<feBlend mode="normal" in2="BackgroundImageFix" result="effect1_dropShadow_3_113"/>
<feBlend mode="normal" in="SourceGraphic" in2="effect1_dropShadow_3_113" result="shape"/>
</filter>
<filter id="filter1_d_3_113" x="14.6684" y="24.8947" width="33.472" height="31.072" filterUnits="userSpaceOnUse" color-interpolation-filters="sRGB">
<feFlood flood-opacity="0" result="BackgroundImageFix"/>
<feColorMatrix in="SourceAlpha" type="matrix" values="0 0 0 0 0 0 0 0 0 0 0 0 0 0 0 0 0 0 127 0" result="hardAlpha"/>
<feOffset dy="4"/>
<feGaussianBlur stdDeviation="2"/>
<feComposite in2="hardAlpha" operator="out"/>
<feColorMatrix type="matrix" values="0 0 0 0 0.25098 0 0 0 0 0.2 0 0 0 0 0.227451 0 0 0 0.2 0"/>
<feBlend mode="normal" in2="BackgroundImageFix" result="effect1_dropShadow_3_113"/>
<feBlend mode="normal" in="SourceGraphic" in2="effect1_dropShadow_3_113" result="shape"/>
</filter>
</defs>
</svg>
