<svg width="60" height="60" viewBox="0 0 60 60" fill="none" xmlns="http://www.w3.org/2000/svg">
<g clip-path="url(#clip0_25_33)">
<path d="M1.39392 60C1.05701 60 0.729248 59.8668 0.486176 59.621C0.165741 59.2969 0.0421455 58.8263 0.162537 58.3864L4.06314 44.1426C1.6347 39.7513 0.35434 34.7836 0.356171 29.7409C0.363037 13.3415 13.7087 0 30.1066 0C38.0603 0.00320435 45.5337 3.10135 51.1509 8.72269C56.7672 14.3445 59.8589 21.8175 59.8567 29.7647C59.8493 46.1646 46.5037 59.507 30.1066 59.507C30.1066 59.507 30.0943 59.507 30.0938 59.507C25.3043 59.5052 20.5559 58.3379 16.328 56.1269L1.71756 59.9583C1.61044 59.9863 1.50149 60 1.39392 60Z" fill="#E5E5E5"/>
<path d="M1.39386 58.7232L5.43317 43.9727C2.94156 39.6555 1.63098 34.7584 1.63281 29.7413C1.63922 14.046 14.4118 1.27673 30.1067 1.27673C37.7229 1.27994 44.8719 4.24441 50.2478 9.62495C55.6234 15.0055 58.5828 22.1576 58.5801 29.7642C58.5732 45.4591 45.7988 58.2302 30.1067 58.2302C30.1058 58.2302 30.1071 58.2302 30.1067 58.2302H30.0943C25.329 58.2283 20.647 57.0331 16.4882 54.7649L1.39386 58.7232ZM17.1872 49.6119L18.0519 50.1241C21.6847 52.2802 25.8499 53.4205 30.0975 53.4228H30.1067C43.1502 53.4228 53.7667 42.8082 53.7722 29.7624C53.7745 23.4402 51.3153 17.4953 46.8471 13.0234C42.3784 8.5515 36.4371 6.08736 30.1154 6.08461C17.0613 6.08461 6.44529 16.6978 6.44025 29.7432C6.43842 34.2137 7.68903 38.567 10.0584 42.3344L10.6215 43.2298L8.23011 51.9602L17.1872 49.6119Z" fill="#FFFCFE"/>
<path d="M2.38403 57.7295L6.28372 43.4889C3.87771 39.3214 2.61291 34.5932 2.61429 29.7505C2.62024 14.5985 14.951 2.27142 30.1016 2.27142C37.4551 2.27463 44.3568 5.13657 49.5456 10.3308C54.7357 15.5251 57.5921 22.4295 57.5894 29.772C57.583 44.9245 45.2517 57.253 30.103 57.253C30.1016 57.253 30.1034 57.253 30.103 57.253H30.0906C25.4905 57.2511 20.9701 56.0966 16.9556 53.9085L2.38403 57.7295Z" fill="#64B161"/>
<path d="M1.39386 58.7232L5.43317 43.9727C2.94156 39.6555 1.63098 34.7584 1.63281 29.7413C1.63922 14.046 14.4118 1.27673 30.1067 1.27673C37.7229 1.27994 44.8719 4.24441 50.2478 9.62495C55.6234 15.0055 58.5828 22.1576 58.5801 29.7642C58.5732 45.4591 45.7988 58.2302 30.1067 58.2302C30.1058 58.2302 30.1071 58.2302 30.1067 58.2302H30.0943C25.329 58.2283 20.647 57.0331 16.4882 54.7649L1.39386 58.7232ZM17.1872 49.6119L18.0519 50.1241C21.6847 52.2802 25.8499 53.4205 30.0975 53.4228H30.1067C43.1502 53.4228 53.7667 42.8082 53.7722 29.7624C53.7745 23.4402 51.3153 17.4953 46.8471 13.0234C42.3784 8.5515 36.4371 6.08736 30.1154 6.08461C17.0613 6.08461 6.44529 16.6978 6.44025 29.7432C6.43842 34.2137 7.68903 38.567 10.0584 42.3344L10.6215 43.2298L8.23011 51.9602L17.1872 49.6119Z" fill="#FFFCFE"/>
<path fill-rule="evenodd" clip-rule="evenodd" d="M22.9902 17.8414C22.4574 16.6567 21.8961 16.6329 21.3889 16.6123C20.9742 16.5944 20.4995 16.5953 20.0257 16.5953C19.5515 16.5953 18.7806 16.7739 18.1287 17.4857C17.4764 18.1975 15.6381 19.9187 15.6381 23.4193C15.6381 26.9203 18.1878 30.3027 18.5435 30.7778C18.8992 31.2526 23.4653 38.6656 30.6966 41.5175C36.7066 43.8878 37.9293 43.4163 39.2339 43.2977C40.5385 43.1792 43.443 41.5765 44.0358 39.9153C44.6291 38.2541 44.6291 36.8304 44.451 36.5324C44.2729 36.2362 43.7987 36.0582 43.0873 35.7025C42.376 35.3468 38.8782 33.6252 38.2259 33.388C37.5736 33.1504 37.0993 33.0323 36.6251 33.7446C36.1504 34.456 34.7881 36.0582 34.3729 36.5324C33.9577 37.008 33.5425 37.0676 32.8312 36.7114C32.1198 36.3548 29.8282 35.6041 27.1101 33.1802C24.9952 31.2947 23.567 28.9656 23.1518 28.2533C22.737 27.5419 23.1449 27.1903 23.4644 26.8017C24.0398 26.1018 25.0053 24.8434 25.2424 24.3691C25.4795 23.894 25.3609 23.4788 25.1833 23.1226C25.0053 22.7669 23.6224 19.2486 22.9902 17.8414Z" fill="#FFFCFE"/>
</g>
<defs>
<clipPath id="clip0_25_33">
<rect width="60" height="60" fill="white"/>
</clipPath>
</defs>
</svg>
